<?xml version="1.0" standalone="no"?>
<!DOCTYPE svg PUBLIC "-//W3C//DTD SVG 20010904//EN"
 "http://www.w3.org/TR/2001/REC-SVG-20010904/DTD/svg10.dtd">
<svg version="1.0" xmlns="http://www.w3.org/2000/svg"
 width="1600.000000pt" height="1600.000000pt" viewBox="0 0 1600.000000 1600.000000"
 preserveAspectRatio="xMidYMid meet">
<metadata>
Created by potrace 1.16, written by Peter Selinger 2001-2019
</metadata>
<g transform="translate(0.000000,1600.000000) scale(0.100000,-0.100000)"
fill="#000000" stroke="none">
<path d="M7705 14993 c-1665 -82 -3170 -698 -4395 -1798 -144 -129 -466 -456
-586 -595 -1045 -1211 -1625 -2649 -1714 -4250 -76 -1384 291 -2825 1023
-4010 404 -653 913 -1240 1502 -1730 559 -465 1232 -862 1909 -1127 1138 -444
2360 -583 3576 -407 1342 194 2614 788 3635 1697 125 111 426 410 540 537
1163 1291 1805 2959 1805 4690 0 1593 -550 3152 -1548 4389 -211 262 -523 592
-762 806 -948 852 -2080 1421 -3320 1669 -527 105 -1159 154 -1665 129z m690
-253 c314 -19 653 -61 940 -116 561 -109 1153 -316 1710 -599 644 -327 1160
-697 1674 -1200 549 -538 957 -1093 1301 -1770 496 -977 730 -1957 730 -3060
0 -1091 -237 -2081 -730 -3050 -346 -680 -753 -1233 -1303 -1772 -721 -705
-1534 -1209 -2515 -1559 -980 -349 -2125 -451 -3237 -288 -928 136 -1853 494
-2689 1041 -370 242 -691 507 -1047 862 -362 362 -624 682 -871 1061 -928
1424 -1279 3039 -1032 4745 133 920 494 1853 1041 2689 493 753 1222 1472
1984 1958 752 479 1611 820 2426 962 256 45 557 80 808 95 195 12 618 12 810
1z"/>
<path d="M7000 13500 l0 -500 440 0 440 0 0 -125 0 -125 -190 0 -190 0 0 -125
0 -125 190 0 190 0 0 -125 0 -125 -190 0 -190 0 0 -125 0 -125 190 0 190 0 0
-125 0 -125 -192 -2 -193 -3 -3 -122 -3 -123 196 0 195 0 0 -1129 0 -1129 -42
-7 c-68 -11 -238 -54 -296 -75 -97 -36 -177 -82 -310 -177 -15 -11 -114 84
-811 781 l-794 794 54 31 c30 17 90 46 134 63 79 33 81 33 250 32 168 0 171 0
247 -32 106 -44 179 -86 236 -138 l49 -43 87 88 86 88 -45 42 c-106 98 -265
181 -428 223 -122 32 -347 32 -472 -1 -101 -26 -254 -94 -325 -145 l-47 -34
-98 97 -97 96 487 483 488 483 -707 707 -706 706 -85 -84 c-47 -47 -85 -89
-85 -94 0 -5 275 -283 610 -619 336 -336 610 -613 610 -616 0 -4 -177 -183
-393 -399 l-392 -392 -60 60 -60 60 130 130 130 130 -88 87 -87 88 -130 -130
-129 -129 -27 24 c-26 24 -84 82 -84 84 0 1 15 37 34 80 105 242 53 503 -136
681 -237 224 -597 218 -829 -14 -187 -188 -230 -446 -113 -689 45 -93 158
-211 249 -259 173 -90 371 -94 545 -10 l69 33 57 -55 56 -54 -134 -134 -133
-133 88 -87 87 -88 134 134 134 134 56 -58 c31 -32 56 -61 56 -64 0 -4 -178
-184 -395 -401 l-395 -395 -613 613 c-336 336 -617 612 -622 612 -6 0 -48 -38
-93 -83 l-83 -84 705 -707 706 -708 481 486 c265 268 486 485 491 484 9 -3
188 -179 188 -185 0 -2 -18 -30 -40 -62 -57 -83 -108 -198 -137 -310 -21 -81
-25 -118 -25 -241 0 -178 26 -292 102 -445 49 -99 162 -255 184 -255 6 0 49
37 94 83 l83 83 -31 35 c-212 237 -250 584 -94 867 19 34 39 62 43 62 10 0
1581 -1569 1581 -1579 0 -3 -23 -38 -51 -76 -99 -134 -181 -346 -214 -553 l-7
-42 -1876 2 -1877 3 -3 873 -2 872 -500 0 -500 0 0 -120 0 -120 378 -2 377 -3
3 -312 2 -313 -380 0 -380 0 0 -125 0 -125 380 0 380 0 0 -315 0 -315 -380 0
-380 0 0 -125 0 -125 380 0 380 0 0 -310 0 -310 -375 0 -375 0 0 -125 0 -125
375 0 375 0 -2 -312 -3 -313 -372 -3 -373 -2 0 -120 0 -120 495 0 495 0 0 870
0 870 1880 0 1879 0 7 -37 c37 -214 115 -415 213 -548 28 -38 51 -74 51 -79 0
-5 -279 -287 -619 -628 l-620 -619 -30 53 c-91 158 -123 305 -104 479 15 138
84 295 178 405 l34 40 -88 88 -89 89 -67 -84 c-160 -201 -239 -467 -215 -718
18 -189 64 -311 190 -508 13 -21 9 -27 -74 -109 l-87 -87 -135 134 -134 134
-87 -88 -88 -87 134 -134 134 -134 -80 -81 c-45 -45 -85 -81 -89 -81 -5 0
-147 138 -316 307 l-308 308 -707 -708 -708 -707 88 -87 87 -88 620 620 620
620 220 -220 c121 -121 220 -224 220 -229 0 -5 -61 -70 -136 -144 l-135 -135
-135 134 -134 134 -87 -88 -88 -87 135 -135 134 -134 -138 -137 -137 -138
-135 135 -134 134 -87 -88 -88 -87 134 -134 134 -135 -166 -167 c-92 -91 -167
-169 -167 -173 0 -4 38 -45 85 -91 l85 -85 170 170 170 170 130 -130 130 -130
87 88 88 87 -130 130 -130 130 138 137 137 138 130 -130 130 -130 87 88 88 87
-130 130 -130 130 140 140 140 140 220 -220 219 -219 -616 -618 c-507 -507
-615 -619 -605 -631 26 -32 149 -153 157 -155 9 -2 1410 1392 1410 1403 0 2
-137 142 -305 310 l-305 305 85 85 85 85 130 -130 130 -130 87 88 88 87 -130
130 -130 130 89 89 89 90 41 -28 c249 -168 547 -218 836 -140 110 29 263 108
359 184 l84 67 -89 89 -88 88 -35 -30 c-112 -94 -259 -163 -386 -181 -86 -13
-242 -4 -315 18 -30 9 -95 36 -143 61 l-89 46 623 623 c547 547 626 622 641
611 133 -95 213 -141 310 -177 58 -21 228 -64 296 -75 l42 -7 0 -1379 0 -1379
-875 0 -875 0 0 -630 0 -630 -60 0 -60 0 0 -125 0 -125 60 0 60 0 0 -125 0
-125 -60 0 -60 0 0 -125 0 -125 248 2 247 3 3 123 3 122 -66 0 -65 0 0 125 0
124 63 3 62 3 3 122 3 123 -66 0 -65 0 0 505 0 505 95 0 95 0 0 -85 0 -85 -60
0 -60 0 0 -125 0 -125 60 0 60 0 0 -125 0 -125 -60 0 -60 0 0 -125 0 -125 250
0 251 0 -3 123 -3 122 -62 3 -63 3 0 124 0 125 65 0 66 0 -3 122 -3 123 -62 3
-63 3 0 84 0 85 530 0 530 0 0 -125 0 -125 -435 0 -435 0 0 -502 0 -503 121 2
120 2 2 373 2 373 313 3 312 2 0 -210 0 -210 -65 0 -66 0 3 -122 3 -123 63 -3
62 -3 0 -124 0 -125 -65 0 -66 0 3 -122 3 -123 248 -3 247 -2 0 125 0 125 -60
0 -60 0 0 125 0 125 60 0 60 0 0 125 0 125 -60 0 -60 0 0 210 0 210 315 0 315
0 0 -375 0 -375 123 0 122 0 1 500 2 500 -439 0 -439 0 0 125 0 125 530 0 530
0 0 -95 0 -95 -60 0 -60 0 0 -125 0 -125 60 0 60 0 0 -125 0 -125 -60 0 -60 0
0 -125 0 -125 250 0 251 0 -3 122 -3 123 -62 3 -63 3 0 124 0 125 65 0 66 0
-3 122 -3 123 -62 3 -63 3 0 94 0 95 95 0 95 0 0 -505 0 -505 -60 0 -60 0 0
-125 0 -125 60 0 60 0 0 -125 0 -125 -60 0 -60 0 0 -125 0 -125 248 2 247 3 3
123 3 122 -66 0 -65 0 0 125 0 124 63 3 62 3 3 123 3 122 -66 0 -65 0 0 630 0
630 -875 0 -875 0 0 1380 0 1379 38 7 c223 38 405 109 547 213 38 28 72 51 76
51 3 0 362 -356 798 -792 l793 -791 -134 -134 -133 -133 88 -87 87 -88 133
133 133 133 70 -69 c38 -38 78 -79 88 -91 l20 -22 -134 -134 -135 -135 88 -87
87 -88 134 134 c104 104 138 132 148 124 7 -6 48 -46 91 -89 l79 -77 -136
-136 -136 -136 88 -88 88 -88 139 135 c116 113 141 133 154 123 8 -7 48 -46
88 -87 l74 -74 -311 -311 -311 -311 351 -350 c193 -192 354 -350 358 -352 4
-1 45 36 92 83 l85 85 -268 267 -267 268 222 222 223 223 188 -187 c132 -131
184 -189 175 -194 -27 -17 -123 -31 -172 -25 -52 7 -148 45 -176 71 -14 13
-27 4 -104 -74 l-89 -89 49 -35 c110 -81 222 -117 359 -117 168 0 281 48 412
173 129 124 183 248 183 418 0 140 -44 273 -123 372 l-30 39 -88 -88 -88 -87
20 -28 c31 -44 56 -110 63 -164 7 -49 -7 -152 -22 -167 -4 -4 -91 76 -193 177
l-186 184 214 213 c118 117 216 215 219 218 3 2 124 -115 269 -260 l265 -265
87 88 88 87 -280 281 c-154 155 -311 313 -350 353 l-70 72 -310 -308 -310
-308 -87 87 -87 88 115 120 c63 66 119 125 124 131 7 8 -17 39 -76 99 l-86 87
-129 -128 -129 -129 -90 90 -90 90 127 127 c143 144 139 121 43 218 -97 96
-74 100 -218 -43 l-127 -127 -90 90 -90 90 130 130 130 130 -88 87 -87 88
-130 -130 -130 -130 -87 87 c-722 719 -1497 1501 -1496 1508 2 6 24 38 49 72
93 125 172 331 208 541 l7 37 749 0 750 0 0 -27 c-1 -39 -51 -161 -100 -244
-113 -191 -345 -339 -554 -355 l-86 -7 0 -125 0 -124 78 7 c414 38 752 308
875 700 13 44 28 101 31 128 l7 47 130 0 129 0 0 -185 0 -185 125 0 125 0 0
185 0 185 125 0 125 0 6 -27 c28 -132 50 -201 89 -281 57 -118 91 -168 184
-265 164 -172 390 -280 634 -302 l77 -7 0 124 0 125 -79 7 c-281 23 -544 243
-636 529 -14 43 -25 82 -25 88 0 5 191 9 500 9 l500 0 0 -435 0 -435 495 0
495 0 0 125 0 125 -375 0 -375 0 0 310 0 310 380 0 380 0 0 125 0 125 -380 0
-380 0 0 315 0 315 380 0 380 0 0 125 0 125 -500 0 -500 0 -2 -437 -3 -438
-498 -3 -497 -2 6 27 c50 209 203 410 382 502 113 58 181 80 273 87 l79 7 0
124 0 125 -77 -7 c-358 -33 -662 -243 -818 -566 -25 -51 -55 -134 -66 -184
-12 -49 -23 -96 -25 -102 -2 -10 -37 -13 -129 -13 l-125 0 0 190 0 190 -125 0
-125 0 0 -190 0 -190 -130 0 -129 0 -6 38 c-4 20 -18 75 -32 122 -91 306 -329
551 -635 656 -69 24 -231 54 -290 54 l-28 0 0 -124 0 -123 86 -7 c266 -20 514
-218 625 -498 15 -40 28 -83 29 -95 l0 -23 -749 0 -749 0 -7 43 c-33 206 -115
418 -214 552 l-51 70 727 727 c400 400 730 725 735 722 14 -9 77 -128 105
-199 26 -66 27 -79 27 -235 l0 -165 -35 -87 c-42 -101 -88 -181 -136 -233 -18
-20 -33 -39 -33 -43 0 -16 169 -174 178 -168 24 14 135 173 169 240 166 330
141 734 -63 1019 -19 26 -34 51 -34 55 0 4 29 36 64 71 l64 64 153 -159 c291
-302 443 -454 454 -454 6 0 46 36 89 79 l79 80 -89 97 c-49 54 -184 195 -301
313 l-212 216 37 38 c20 20 40 37 44 37 5 0 34 -18 66 -40 86 -58 195 -107
307 -136 86 -23 120 -27 245 -27 123 0 159 4 240 25 52 14 113 33 135 42 l39
17 -94 94 -95 95 -40 -12 c-57 -17 -307 -17 -370 1 -54 15 -169 67 -224 101
l-34 22 229 229 229 229 307 -307 308 -308 352 353 353 352 -88 87 -87 88
-265 -265 -265 -265 -220 220 -220 220 267 267 268 268 -85 85 c-46 47 -87 85
-91 85 -4 0 -124 -117 -267 -260 -143 -143 -264 -260 -269 -260 -4 0 -106 98
-226 218 l-218 219 267 266 268 267 -84 85 c-47 47 -89 85 -95 85 -5 0 -167
-158 -360 -350 l-350 -350 308 -308 c169 -169 307 -311 307 -316 0 -12 -436
-446 -448 -446 -12 0 -82 142 -108 220 -24 71 -28 335 -5 388 l14 34 -93 93
c-52 52 -97 92 -101 89 -10 -6 -55 -145 -70 -219 -7 -33 -13 -120 -12 -195 1
-112 5 -152 27 -235 27 -105 84 -235 136 -309 16 -25 30 -48 30 -51 0 -4 -16
-23 -37 -44 l-36 -36 -287 293 c-157 160 -290 292 -296 292 -5 0 -48 -38 -94
-85 l-85 -85 295 -295 294 -294 -67 -66 c-36 -36 -69 -65 -72 -65 -4 0 -25 13
-48 29 -162 111 -347 165 -562 165 -171 0 -294 -29 -446 -105 -70 -35 -230
-146 -245 -171 -6 -9 152 -178 166 -178 3 0 30 21 60 46 73 60 219 131 311
150 113 24 302 15 392 -20 86 -32 187 -86 187 -98 0 -6 -324 -334 -720 -731
-673 -672 -722 -719 -743 -709 -12 7 -47 30 -77 53 -120 89 -327 168 -532 203
l-38 7 0 1129 0 1130 180 0 180 0 0 125 0 125 -180 0 -180 0 0 125 0 125 185
0 185 0 0 125 0 125 -185 0 -185 0 0 125 0 125 185 0 185 0 0 125 0 125 -185
0 -185 0 0 125 0 125 435 0 435 0 0 500 0 500 -125 0 -125 0 0 -375 0 -375
-310 0 -310 0 0 375 0 375 -125 0 -125 0 0 -375 0 -375 -315 0 -315 0 0 375 0
375 -125 0 -125 0 0 -500z m-2685 -1354 c84 -40 133 -89 174 -173 26 -52 31
-73 31 -136 0 -70 -14 -137 -28 -137 -4 0 -109 102 -234 227 l-228 228 32 12
c18 6 67 12 108 12 66 1 84 -3 145 -33z m-248 -387 c277 -276 254 -246 210
-264 -22 -9 -67 -15 -112 -15 -65 0 -85 5 -141 32 -126 61 -204 182 -204 315
0 68 17 146 32 141 4 -2 101 -96 215 -209z m4175 -2788 c188 -49 334 -135 473
-276 320 -326 377 -819 139 -1217 -67 -112 -221 -266 -332 -332 -269 -160
-587 -190 -873 -82 -142 53 -241 118 -354 232 -113 114 -179 214 -231 353
-218 580 144 1220 754 1336 107 20 322 13 424 -14z"/>
<path d="M9556 10330 c-63 -19 -104 -89 -92 -156 4 -20 22 -49 42 -69 31 -32
40 -35 91 -35 51 0 58 3 94 39 35 35 39 44 39 89 0 43 -5 57 -31 86 -17 20
-47 40 -67 46 -42 11 -37 11 -76 0z"/>
<path d="M10173 9709 c-17 -5 -43 -23 -57 -39 -77 -92 -15 -220 107 -220 44 0
53 4 88 39 34 34 39 44 39 86 0 60 -24 100 -75 125 -45 22 -55 23 -102 9z"/>
</g>
</svg>
